<?xml version="1.0" standalone="no"?>
<!DOCTYPE svg PUBLIC "-//W3C//DTD SVG 20010904//EN"
 "http://www.w3.org/TR/2001/REC-SVG-20010904/DTD/svg10.dtd">
<svg version="1.0" xmlns="http://www.w3.org/2000/svg"
 width="650.000000pt" height="650.000000pt" viewBox="0 0 650.000000 650.000000"
 preserveAspectRatio="xMidYMid meet">

<g transform="translate(0.000000,650.000000) scale(0.100000,-0.100000)"
fill="#000000" stroke="none">
<path d="M3209 6122 c-21 -19 -34 -42 -40 -72 -10 -56 -11 -301 0 -394 6 -60
11 -72 39 -97 56 -50 133 -35 167 31 22 42 22 458 1 499 -34 65 -113 81 -167
33z"/>
<path d="M1308 5273 c-47 -29 -61 -89 -34 -141 16 -31 295 -310 328 -329 62
-34 149 3 162 67 10 55 -19 99 -162 243 -174 175 -224 203 -294 160z"/>
<path d="M5095 5271 c-16 -10 -96 -86 -177 -168 -120 -122 -148 -156 -153
-186 -8 -44 8 -91 39 -112 26 -19 89 -19 124 -1 49 26 321 308 331 343 29 101
-75 179 -164 124z"/>
<path d="M3130 4880 c14 -11 32 -20 40 -20 19 0 3 13 -35 28 l-30 13 25 -21z"/>
<path d="M3250 4810 c8 -5 20 -10 25 -10 6 0 3 5 -5 10 -8 5 -19 10 -25 10 -5
0 -3 -5 5 -10z"/>
<path d="M3313 4793 c9 -2 23 -2 30 0 6 3 -1 5 -18 5 -16 0 -22 -2 -12 -5z"/>
<path d="M3566 4534 c-9 -24 -2 -26 12 -4 7 11 8 20 3 20 -5 0 -12 -7 -15 -16z"/>
<path d="M3380 4455 c-7 -9 -11 -18 -8 -20 3 -3 11 1 18 10 7 9 11 18 8 20 -3
3 -11 -1 -18 -10z"/>
<path d="M3375 4400 c9 -30 13 -35 21 -27 3 3 -2 16 -11 29 l-17 23 7 -25z"/>
<path d="M3298 4383 c7 -3 16 -2 19 1 4 3 -2 6 -13 5 -11 0 -14 -3 -6 -6z"/>
<path d="M3233 4344 c-15 -16 -16 -24 -4 -24 8 0 24 30 19 35 -2 2 -9 -3 -15
-11z"/>
<path d="M3082 4260 c-15 -24 -15 -30 -2 -30 6 0 10 7 10 15 0 8 5 15 10 15 6
0 10 5 10 10 0 16 -14 11 -28 -10z"/>
<path d="M3267 4236 c-3 -8 -2 -18 3 -21 13 -8 20 9 11 24 -6 10 -10 9 -14 -3z"/>
<path d="M3155 4080 c3 -5 8 -10 11 -10 2 0 4 5 4 10 0 6 -5 10 -11 10 -5 0
-7 -4 -4 -10z"/>
<path d="M650 3252 c-79 -35 -104 -113 -54 -171 39 -47 76 -53 309 -49 200 3
211 4 242 26 20 14 37 38 44 62 10 33 9 43 -7 72 -37 62 -63 68 -304 67 -118
0 -222 -3 -230 -7z"/>
<path d="M5374 3241 c-89 -54 -83 -157 12 -197 53 -22 434 -20 481 3 92 43 93
152 1 199 -21 11 -78 14 -245 14 -197 0 -221 -2 -249 -19z"/>
<path d="M1665 1791 c-24 -12 -99 -79 -186 -168 -128 -130 -148 -155 -154
-190 -14 -84 56 -148 137 -124 54 17 342 303 358 358 17 55 -6 108 -54 128
-45 19 -52 19 -101 -4z"/>
<path d="M4744 1796 c-19 -8 -38 -28 -48 -51 -33 -68 -15 -97 159 -271 171
-171 200 -189 268 -160 27 11 42 26 53 53 29 67 11 99 -150 262 -131 133 -193
181 -236 180 -8 0 -29 -6 -46 -13z"/>
<path d="M2310 1638 c-50 -34 -70 -81 -70 -161 0 -76 22 -131 66 -166 27 -21
28 -21 941 -21 783 0 918 2 942 15 72 37 104 180 62 269 -13 26 -37 54 -55 66
-33 20 -45 20 -943 20 l-910 0 -33 -22z"/>
<path d="M2308 1223 c-46 -29 -68 -81 -68 -164 0 -84 23 -135 76 -169 28 -19
55 -20 941 -20 l911 0 33 27 c93 78 91 265 -3 323 -32 20 -48 20 -948 20 -834
-1 -917 -2 -942 -17z"/>
<path d="M2592 813 c-38 -19 -57 -44 -67 -89 -12 -62 58 -113 184 -133 50 -8
84 -25 196 -95 306 -191 402 -190 727 14 61 38 127 72 147 76 132 22 201 62
201 118 0 39 -35 96 -70 113 -19 10 -171 13 -655 13 -564 0 -633 -2 -663 -17z"/>
</g>
</svg>
